<svg width="23" height="21" viewBox="0 0 23 21" fill="none" xmlns="http://www.w3.org/2000/svg">
<path d="M11.3392 9.73614C11.0716 9.73768 10.8105 9.81725 10.5887 9.96479C10.367 10.1123 10.1946 10.3213 10.0933 10.5652C9.99194 10.8091 9.96624 11.0772 10.0194 11.3355C10.0726 11.5938 10.2022 11.8308 10.392 12.0166C10.5818 12.2024 10.8232 12.3287 11.0858 12.3796C11.3484 12.4304 11.6203 12.4035 11.8674 12.3023C12.1145 12.2011 12.3256 12.0301 12.4742 11.8109C12.6227 11.5916 12.7019 11.334 12.7019 11.0704C12.7014 10.8947 12.6658 10.7208 12.597 10.5586C12.5282 10.3964 12.4277 10.2492 12.3012 10.1253C12.1746 10.0014 12.0245 9.90327 11.8595 9.8365C11.6944 9.76972 11.5177 9.73562 11.3392 9.73614ZM6.94913 9.73614C6.68153 9.73768 6.42039 9.81725 6.19864 9.96479C5.9769 10.1123 5.80449 10.3213 5.70317 10.5652C5.60185 10.8091 5.57615 11.0772 5.62932 11.3355C5.68249 11.5938 5.81214 11.8308 6.00192 12.0166C6.1917 12.2024 6.43311 12.3287 6.69569 12.3796C6.95827 12.4304 7.23026 12.4035 7.47735 12.3023C7.72444 12.2011 7.93555 12.0301 8.08407 11.8109C8.23258 11.5916 8.31184 11.334 8.31185 11.0704C8.3108 10.7162 8.16718 10.3768 7.91248 10.1267C7.65778 9.87658 7.31278 9.73613 6.95311 9.73614H6.94913ZM15.7253 9.73614C15.4577 9.73768 15.1966 9.81725 14.9748 9.96479C14.7531 10.1123 14.5807 10.3213 14.4794 10.5652C14.378 10.8091 14.3524 11.0772 14.4055 11.3355C14.4587 11.5938 14.5883 11.8308 14.7781 12.0166C14.9679 12.2024 15.2093 12.3287 15.4719 12.3796C15.7345 12.4304 16.0065 12.4035 16.2535 12.3023C16.5006 12.2011 16.7118 12.0301 16.8603 11.8109C17.0088 11.5916 17.088 11.334 17.088 11.0704C17.087 10.7162 16.9434 10.3768 16.6887 10.1267C16.434 9.87658 16.089 9.73613 15.7293 9.73614H15.7253ZM21.8357 7.57236C21.2199 6.62547 20.3538 5.78813 19.2652 5.08383C17.1635 3.72218 14.4023 2.97092 11.4902 2.97092C10.531 2.97047 9.57373 3.05427 8.62968 3.22134C8.03972 2.66231 7.37868 2.18094 6.66308 1.78926C4.01711 0.482386 1.68103 0.967572 0.497098 1.38624C0.407585 1.4176 0.327487 1.47057 0.264134 1.5403C0.200781 1.61003 0.156195 1.69429 0.134456 1.78538C0.112718 1.87647 0.114521 1.97147 0.1397 2.0617C0.16488 2.15192 0.212632 2.23448 0.278587 2.30183C1.10893 3.15091 2.48754 4.82558 2.14984 6.35157C0.834797 7.67801 0.119669 9.27834 0.119669 10.9413C0.119669 12.6394 0.834797 14.2358 2.14984 15.5623C2.48754 17.0883 1.10893 18.7629 0.278587 19.612C0.213619 19.6797 0.166823 19.7622 0.142441 19.8522C0.118058 19.9422 0.11686 20.0367 0.138955 20.1272C0.16105 20.2178 0.20574 20.3015 0.268973 20.3707C0.332205 20.4399 0.411982 20.4925 0.501071 20.5237C1.68103 20.9424 4.01711 21.4276 6.67103 20.1246C7.38658 19.7328 8.04761 19.2515 8.63763 18.6925C9.58168 18.8596 10.539 18.9434 11.4981 18.9429C14.4103 18.9429 17.1715 18.1917 19.2732 16.83C20.3617 16.1257 21.2239 15.2884 21.8436 14.3415C22.531 13.2889 22.8806 12.1542 22.8806 10.9726C22.8766 9.75961 22.527 8.6249 21.8397 7.57236H21.8357ZM11.379 16.9787C10.1802 16.982 8.98607 16.8308 7.82715 16.5287L7.02859 17.2878C6.58523 17.7073 6.09002 18.0701 5.55464 18.3678C4.90283 18.6896 4.19517 18.8874 3.46885 18.9508C3.50858 18.8803 3.54433 18.8099 3.58009 18.7395C4.38262 17.2865 4.59848 15.9809 4.22768 14.8228C2.91661 13.8054 2.12997 12.5064 2.12997 11.09C2.12997 7.83843 6.27374 5.20121 11.379 5.20121C16.4842 5.20121 20.6319 7.83843 20.6319 11.09C20.6319 14.3415 16.4881 16.9787 11.379 16.9787Z" fill="#6AD778"/>
</svg>
