<svg width="23" height="23" viewBox="0 0 23 23" fill="none" xmlns="http://www.w3.org/2000/svg">
<path d="M23 3.59375C23 4.40234 22.3576 5.14805 21.275 5.75C19.9678 6.47324 18.0182 6.98535 15.7811 7.13809C15.6148 7.05723 15.4486 6.98086 15.2734 6.91348C13.5035 6.17227 11.1496 5.75 8.625 5.75C8.25215 5.75 7.88828 5.75898 7.52441 5.77695L7.475 5.75C6.39238 5.14805 5.75 4.40234 5.75 3.59375C5.75 1.6082 9.61328 0 14.375 0C19.1367 0 23 1.6082 23 3.59375ZM7.21895 7.23691C7.67715 7.20547 8.14883 7.1875 8.625 7.1875C11.4191 7.1875 13.8988 7.74004 15.4756 8.59805C16.5896 9.20449 17.25 9.95918 17.25 10.7812C17.25 10.9609 17.2186 11.1361 17.1557 11.3068C16.949 11.8998 16.392 12.4434 15.5834 12.9016C15.5789 12.9061 15.5699 12.9061 15.5654 12.9105C15.552 12.9195 15.5385 12.924 15.525 12.933C13.9527 13.8045 11.4461 14.3705 8.625 14.3705C5.94766 14.3705 3.55332 13.8629 1.96758 13.0633C1.88223 13.0229 1.80137 12.9779 1.72051 12.933C0.642383 12.3355 0 11.5898 0 10.7812C0 9.21797 2.39883 7.88379 5.75 7.39414C6.22168 7.32676 6.71133 7.27285 7.21895 7.23691ZM18.6875 10.7812C18.6875 9.79746 18.2113 8.98887 17.6049 8.38242C18.8762 8.18477 20.0396 7.87031 21.0279 7.46152C21.7602 7.15605 22.443 6.77871 23 6.31602V7.90625C23 8.77324 22.2588 9.57285 21.0324 10.1928C20.3766 10.5252 19.577 10.8082 18.6785 11.0238C18.683 10.943 18.6875 10.8666 18.6875 10.7857V10.7812ZM17.25 15.0938C17.25 15.9023 16.6076 16.648 15.525 17.25C15.4441 17.2949 15.3633 17.3354 15.2779 17.3803C13.6967 18.1799 11.3023 18.6875 8.625 18.6875C5.80391 18.6875 3.29727 18.1215 1.725 17.25C0.642383 16.648 0 15.9023 0 15.0938V13.5035C0.561523 13.9662 1.23984 14.3436 1.97207 14.649C3.74648 15.3902 6.10039 15.8125 8.625 15.8125C11.1496 15.8125 13.5035 15.3902 15.2779 14.649C15.6283 14.5053 15.9652 14.3391 16.2842 14.1594C16.5582 14.0066 16.8143 13.8359 17.0568 13.6562C17.1242 13.6068 17.1871 13.5529 17.25 13.5035V13.6562V13.9123V15.0938ZM18.6875 15.0938V13.6562V12.4928C19.541 12.3041 20.3271 12.066 21.0279 11.774C21.7602 11.4686 22.443 11.0912 23 10.6285V12.2188C23 12.6904 22.7754 13.1621 22.3307 13.6068C21.5984 14.3391 20.3092 14.941 18.6785 15.3318C18.683 15.2555 18.6875 15.1746 18.6875 15.0938ZM8.625 20.125C11.1496 20.125 13.5035 19.7027 15.2779 18.9615C16.0102 18.6561 16.693 18.2787 17.25 17.816V19.4062C17.25 21.3918 13.3867 23 8.625 23C3.86328 23 0 21.3918 0 19.4062V17.816C0.561523 18.2787 1.23984 18.6561 1.97207 18.9615C3.74648 19.7027 6.10039 20.125 8.625 20.125Z" fill="#6AD778"/>
</svg>
