<svg width="23" height="31" viewBox="0 0 23 31" fill="none" xmlns="http://www.w3.org/2000/svg">
<g clip-path="url(#clip0_626_740)">
<path d="M12.8497 30.225C15.9057 26.3379 22.8757 16.9168 22.8757 11.625C22.8757 5.20703 17.7525 0 11.4378 0C5.1232 0 0 5.20703 0 11.625C0 16.9168 6.96993 26.3379 10.026 30.225C10.7587 31.1514 12.117 31.1514 12.8497 30.225ZM11.4378 7.75C12.449 7.75 13.4188 8.15826 14.1338 8.88496C14.8488 9.61166 15.2505 10.5973 15.2505 11.625C15.2505 12.6527 14.8488 13.6383 14.1338 14.365C13.4188 15.0917 12.449 15.5 11.4378 15.5C10.4267 15.5 9.45692 15.0917 8.74191 14.365C8.02691 13.6383 7.62523 12.6527 7.62523 11.625C7.62523 10.5973 8.02691 9.61166 8.74191 8.88496C9.45692 8.15826 10.4267 7.75 11.4378 7.75Z" fill="#006885"/>
</g>
<defs>
<clipPath id="clip0_626_740">
<rect width="22.8757" height="31" fill="white"/>
</clipPath>
</defs>
</svg>
