<svg width="23" height="21" viewBox="0 0 23 21" fill="none" xmlns="http://www.w3.org/2000/svg">
<g clip-path="url(#clip0_626_1076)">
<path d="M2.64841 3.52478C1.25349 3.52478 0.119385 4.64755 0.119385 6.02851V8.53224C0.119385 8.87651 0.411803 9.14644 0.739785 9.25989C1.48269 9.51417 2.01615 10.2144 2.01615 11.036C2.01615 11.8575 1.48269 12.5578 0.739785 12.8121C0.411803 12.9255 0.119385 13.1954 0.119385 13.5397V16.0434C0.119385 17.4244 1.25349 18.5472 2.64841 18.5472H20.3516C21.7465 18.5472 22.8806 17.4244 22.8806 16.0434V13.5397C22.8806 13.1954 22.5882 12.9255 22.2602 12.8121C21.5173 12.5578 20.9838 11.8575 20.9838 11.036C20.9838 10.2144 21.5173 9.51417 22.2602 9.25989C22.5882 9.14644 22.8806 8.87651 22.8806 8.53224V6.02851C22.8806 4.64755 21.7465 3.52478 20.3516 3.52478H2.64841ZM5.17743 7.90631V14.1656C5.17743 14.5099 5.46194 14.7916 5.80968 14.7916H17.1903C17.538 14.7916 17.8225 14.5099 17.8225 14.1656V7.90631C17.8225 7.56205 17.538 7.28038 17.1903 7.28038H5.80968C5.46194 7.28038 5.17743 7.56205 5.17743 7.90631ZM3.91292 7.28038C3.91292 6.58794 4.478 6.02851 5.17743 6.02851H17.8225C18.522 6.02851 19.087 6.58794 19.087 7.28038V14.7916C19.087 15.484 18.522 16.0434 17.8225 16.0434H5.17743C4.478 16.0434 3.91292 15.484 3.91292 14.7916V7.28038Z" fill="#6AD778"/>
</g>
<defs>
<clipPath id="clip0_626_1076">
<rect width="22.7612" height="20.0299" fill="white" transform="translate(0.119385 0.940308)"/>
</clipPath>
</defs>
</svg>
