<svg width="23" height="23" viewBox="0 0 23 23" fill="none" xmlns="http://www.w3.org/2000/svg">
<g clip-path="url(#clip0_626_1065)">
<path d="M14.3451 2.96453C14.3451 2.20995 14.0454 1.48628 13.5118 0.95271C12.9782 0.419141 12.2546 0.119385 11.5 0.119385C10.7454 0.119385 10.0217 0.419141 9.48816 0.95271C8.95459 1.48628 8.65484 2.20995 8.65484 2.96453C8.65484 3.71911 8.95459 4.44279 9.48816 4.97636C10.0217 5.50993 10.7454 5.80968 11.5 5.80968C12.2546 5.80968 12.9782 5.50993 13.5118 4.97636C14.0454 4.44279 14.3451 3.71911 14.3451 2.96453ZM10.0774 7.23226C8.50813 7.23226 7.23226 8.50813 7.23226 10.0774V12.2113C7.23226 12.9981 7.86797 13.6338 8.65484 13.6338H8.73486L9.22831 18.0572C9.30833 18.7773 9.91737 19.3241 10.642 19.3241H12.3624C13.087 19.3241 13.6961 18.7773 13.7761 18.0572L14.2651 13.6338H14.3451C15.132 13.6338 15.7677 12.9981 15.7677 12.2113V10.0774C15.7677 8.50813 14.4918 7.23226 12.9226 7.23226H10.0774ZM6.00084 17.6437C6.57877 17.537 6.96553 16.9813 6.85884 16.4034C6.75214 15.8255 6.19645 15.4387 5.61853 15.5454C4.17817 15.8077 2.91119 16.1767 1.97318 16.6479C1.5064 16.8835 1.07073 17.1681 0.737316 17.5193C0.4039 17.8793 0.119385 18.3684 0.119385 18.9685C0.119385 19.9198 0.808445 20.5733 1.41304 20.969C2.06653 21.3958 2.93786 21.7381 3.92033 22.0093C5.90749 22.5561 8.58371 22.8806 11.5 22.8806C14.4163 22.8806 17.0925 22.5561 19.0752 22.0093C20.0577 21.7381 20.9334 21.3958 21.5825 20.969C22.1915 20.5733 22.8761 19.9198 22.8761 18.9685C22.8761 18.3684 22.5916 17.8793 22.2538 17.5193C21.9204 17.1681 21.4847 16.8835 21.0179 16.6479C20.0843 16.1767 18.8174 15.8077 17.3726 15.5454C16.7946 15.4387 16.2389 15.8255 16.1322 16.4034C16.0256 16.9813 16.4123 17.537 16.9902 17.6437C18.3328 17.8882 19.3775 18.2128 20.0577 18.5551C20.1999 18.6262 20.3155 18.6929 20.4089 18.7551C20.5689 18.8618 20.5689 19.0752 20.4089 19.1819C20.0177 19.4353 19.3819 19.7065 18.4973 19.951C16.7591 20.4355 14.2785 20.7467 11.5 20.7467C8.72152 20.7467 6.2409 20.4355 4.48936 19.951C3.60469 19.7065 2.96898 19.4353 2.57777 19.1819C2.41773 19.0752 2.41773 18.8618 2.57777 18.7551C2.67113 18.6929 2.79116 18.6262 2.92897 18.5551C3.60914 18.2128 4.65384 17.8927 5.9964 17.6437H6.00084Z" fill="#6AD778"/>
</g>
<defs>
<clipPath id="clip0_626_1065">
<rect width="22.7612" height="22.7612" fill="white" transform="translate(0.119385 0.119385)"/>
</clipPath>
</defs>
</svg>
