<svg width="21" height="21" viewBox="0 0 21 21" fill="none" xmlns="http://www.w3.org/2000/svg">
<path d="M10.9225 1.98105L9.53613 3.01875C9.31465 3.18281 9.1875 3.44531 9.1875 3.72012V4.09336C9.1875 4.37227 9.41309 4.59785 9.69199 4.59785C9.79043 4.59785 9.88887 4.56914 9.9709 4.51172L11.6854 3.36738C11.7674 3.31406 11.8658 3.28125 11.9643 3.28125H12.0053C12.2596 3.28125 12.4688 3.49043 12.4688 3.74473C12.4688 3.86777 12.4195 3.98672 12.3334 4.07285L11.5172 4.88906C11.2793 5.12695 10.9881 5.30742 10.6682 5.41406L9.58125 5.775C9.34336 5.85293 9.1875 6.07441 9.1875 6.32461C9.1875 6.47637 9.12598 6.62402 9.01934 6.73477L8.28516 7.46895C8.02266 7.73145 7.8791 8.08418 7.8791 8.45332V8.62969C7.8791 9.30234 8.43691 9.84785 9.10547 9.84785C9.55664 9.84785 9.975 9.59355 10.176 9.1916L10.34 8.85938C10.4385 8.6625 10.6436 8.53535 10.865 8.53535C11.0496 8.53535 11.2219 8.62148 11.3326 8.76914L12.0012 9.65918C12.0873 9.77812 12.2268 9.84375 12.3744 9.84375C12.7189 9.84375 12.9445 9.47871 12.7887 9.17109L12.7436 9.07676C12.6 8.78965 12.7436 8.44102 13.0512 8.33848L13.9207 8.04727C14.2324 7.94473 14.4416 7.65352 14.4416 7.32539C14.4416 6.90293 14.782 6.5625 15.2045 6.5625H16.4104C16.7713 6.5625 17.0666 6.85781 17.0666 7.21875C17.0666 7.57969 16.7713 7.875 16.4104 7.875H15.5613C15.266 7.875 14.9789 7.99395 14.7697 8.20312L14.577 8.3959C14.4908 8.48203 14.4416 8.60098 14.4416 8.72402C14.4416 8.97832 14.6508 9.1875 14.9051 9.1875H15.3686C15.6146 9.1875 15.8525 9.28594 16.0248 9.4582L16.2914 9.7248C16.3652 9.79863 16.4062 9.90117 16.4062 10.0037C16.4062 10.1062 16.3652 10.2088 16.2914 10.2826L15.9838 10.5902C15.832 10.7461 15.75 10.9471 15.75 11.1562C15.75 11.3654 15.832 11.5664 15.9838 11.7182L16.7344 12.4688C17.1527 12.8871 17.7229 13.125 18.3176 13.125H18.617C18.8836 12.2965 19.0271 11.4146 19.0271 10.5C19.0271 5.93086 15.4342 2.19844 10.9184 1.98105H10.9225ZM17.9771 14.6098C17.8254 14.5031 17.6408 14.4416 17.4439 14.4416C17.1979 14.4416 16.96 14.3432 16.7877 14.1709L16.2422 13.6172C15.9264 13.3014 15.5039 13.125 15.0568 13.125C14.659 13.125 14.2693 12.9814 13.9658 12.723L12.8789 11.7879C12.4031 11.3818 11.7961 11.1562 11.1686 11.1562H10.3113C9.79453 11.1562 9.28594 11.308 8.85527 11.5951L7.73145 12.3457C7.00137 12.8338 6.5625 13.6541 6.5625 14.5318V14.6631C6.5625 15.3604 6.8373 16.0289 7.32949 16.5211L7.98574 17.1773C8.33437 17.526 8.80605 17.7229 9.29824 17.7229H10.1719C10.7174 17.7229 11.1562 18.1617 11.1562 18.7072C11.1562 18.8098 11.1727 18.9123 11.2014 19.0066C14.1258 18.7687 16.6359 17.0543 17.9771 14.6098ZM0 10.5C0 7.71523 1.10625 5.04451 3.07538 3.07538C5.04451 1.10625 7.71523 0 10.5 0C13.2848 0 15.9555 1.10625 17.9246 3.07538C19.8938 5.04451 21 7.71523 21 10.5C21 13.2848 19.8938 15.9555 17.9246 17.9246C15.9555 19.8938 13.2848 21 10.5 21C7.71523 21 5.04451 19.8938 3.07538 17.9246C1.10625 15.9555 0 13.2848 0 10.5ZM7.68223 4.13027C7.42793 3.87598 7.00957 3.87598 6.75527 4.13027L5.44277 5.44277C5.18848 5.69707 5.18848 6.11543 5.44277 6.36973C5.69707 6.62402 6.11543 6.62402 6.36973 6.36973L7.68223 5.05723C7.93652 4.80293 7.93652 4.38457 7.68223 4.13027Z" fill="#6AD778"/>
</svg>
